<svg width="800px" height="800px" viewBox="0 0 24 24" fill="none"  stroke="currentColor" xmlns="http://www.w3.org/2000/svg">
    <path d="M3 10H21M7 3V5M17 3V5M6.2 21H17.8C18.9 21 19.5 21 19.9 20.8C20.3 20.6 20.6 20.3 20.8 19.9C21 19.5 21 18.9 21 17.8V8.2C21 7.1 21 6.5 20.8 6.0C20.6 5.7 20.3 5.4 19.9 5.2C19.4 5 18.9 5 17.8 5H6.2C5.0 5 4.5 5 4.1 5.2C3.7 5.4 3.4 5.7 3.2 6.1C3 6.5 3 7.1 3 8.2V17.8C3 18.9 3 19.5 3.2 19.9C3.4 20.3 3.7 20.6 4.0 20.8C4.5 21 5.0 21 6.2 21Z" stroke-width="2" stroke-linecap="round" stroke-linejoin="round"/>
</svg>
